<?xml version="1.0" encoding="UTF-8" standalone="no"?>
<!-- Created with Inkscape (http://www.inkscape.org/) -->

<svg
   width="1080"
   height="1080"
   viewBox="0 0 1080 1080"
   version="1.1"
   id="svg1"
   inkscape:version="1.4 (86a8ad7, 2024-10-11)"
   sodipodi:docname="Logo.svg"
   inkscape:export-filename="..\Kész\Kész\Kész\Kész\Kész\Kész\Kész\Kész\Kész\Kész\Kész\Kész\Logok\LogoTransparentLGreen244x244.png"
   inkscape:export-xdpi="21.688889"
   inkscape:export-ydpi="21.688889"
   xmlns:inkscape="http://www.inkscape.org/namespaces/inkscape"
   xmlns:sodipodi="http://sodipodi.sourceforge.net/DTD/sodipodi-0.dtd"
   xmlns="http://www.w3.org/2000/svg"
   xmlns:svg="http://www.w3.org/2000/svg">
  <sodipodi:namedview
     id="namedview1"
     pagecolor="#ffffff"
     bordercolor="#000000"
     borderopacity="0.25"
     inkscape:showpageshadow="2"
     inkscape:pageopacity="0.0"
     inkscape:pagecheckerboard="0"
     inkscape:deskcolor="#d1d1d1"
     inkscape:document-units="px"
     inkscape:zoom="0.75462963"
     inkscape:cx="549.27607"
     inkscape:cy="557.22699"
     inkscape:window-width="1920"
     inkscape:window-height="1017"
     inkscape:window-x="-8"
     inkscape:window-y="-8"
     inkscape:window-maximized="1"
     inkscape:current-layer="layer1"
     inkscape:export-bgcolor="#f6ffd5ff" />
  <defs
     id="defs1" />
  <g
     inkscape:label="Réteg 1"
     inkscape:groupmode="layer"
     id="layer1">
    <path
       style="display:inline;fill:#f6ffd5;stroke-width:6.5858;fill-opacity:1"
       d="m 712.51248,1003.6381 c -18.73068,-6.94666 -47.16619,-21.65038 -63.18944,-32.67488 -16.02392,-11.0245 -38.49006,-30.70056 -49.92564,-43.72445 -11.43493,-13.02394 -27.84016,-37.64766 -36.4557,-54.71937 -8.61555,-17.07165 -19.22132,-48.82107 -23.56861,-70.55421 -4.34663,-21.73314 -10.77107,-52.50846 -14.2767,-68.38952 -3.50496,-15.88114 -12.17517,-40.24853 -19.26741,-54.14977 -7.09159,-13.90125 -22.22642,-35.90395 -33.63303,-48.8949 -11.40595,-12.99095 -32.87368,-31.90274 -47.70622,-42.0263 -14.83254,-10.12349 -42.75108,-23.59844 -62.04168,-29.94432 -24.60916,-8.09553 -49.17038,-10.77667 -82.32251,-8.98645 -32.93288,1.77829 -58.51938,7.77157 -84.44544,19.78005 -20.458,9.47579 -48.84076,28.87308 -63.0728,43.10512 -14.23205,14.23205 -32.993017,40.46606 -41.691079,58.29777 -10.883431,22.31177 -16.589039,47.15434 -18.297988,79.67041 -1.703945,32.42098 0.980625,57.67785 8.554296,80.48007 6.428005,19.35283 23.598561,47.20175 41.114621,66.68386 16.54241,18.39908 42.1779,39.6263 56.9679,47.17159 14.78993,7.54529 45.09423,15.17988 67.34284,16.96575 28.46798,2.28514 50.84871,-0.20614 75.54605,-8.40921 23.78416,-7.89987 45.1398,-21.70213 66.26547,-42.82793 22.31731,-22.31704 34.11841,-41.0946 41.54587,-66.10484 5.70528,-19.21335 10.37396,-43.17513 10.37396,-53.24837 0,-10.07325 -5.93579,-34.17978 -13.1907,-53.57002 -7.25492,-19.39025 -21.33207,-43.03558 -31.28256,-52.54521 -9.95049,-9.50963 -31.42817,-23.3271 -47.72803,-30.70544 -16.29985,-7.37834 -41.49054,-13.41521 -55.9793,-13.41521 -14.48876,0 -38.19765,5.48841 -52.68641,12.19651 -14.48876,6.7081 -34.02047,20.72011 -43.40385,31.13793 -9.38332,10.41775 -20.87679,28.62228 -25.54092,40.4544 -4.89562,12.4193 -7.03765,34.31228 -5.06738,51.79231 1.87709,16.65358 9.10823,37.90754 16.06916,47.231 6.96093,9.32338 20.61138,22.89105 30.33433,30.15025 11.98135,8.94536 27.92755,13.19861 49.48419,13.19861 22.36617,0 37.94244,-4.36949 52.48119,-14.72197 12.41634,-8.84124 23.2845,-24.17252 27.20759,-38.38079 4.88192,-17.68104 4.19483,-29.2536 -2.71954,-45.80201 -5.08858,-12.17879 -16.59648,-25.48962 -25.57306,-29.5796 -8.97658,-4.08998 -23.90349,-5.53332 -33.17096,-3.20735 -10.4277,2.6172 -18.37939,10.32344 -20.86303,20.21894 -2.20723,8.79448 -2.07077,19.13287 0.3036,22.97417 2.37412,3.84136 11.54393,5.17038 20.37739,2.95327 11.80604,-2.96308 16.06086,-1.34943 16.06086,6.09121 0,5.56724 -4.65708,14.77939 -10.34912,20.47137 -5.69198,5.69204 -16.19936,10.34912 -23.34963,10.34912 -7.15027,0 -20.27485,-7.27435 -29.16568,-16.16518 -10.6767,-10.6767 -16.16518,-23.59527 -16.16518,-38.04939 0,-12.03635 4.62534,-28.48787 10.27853,-36.5589 5.65318,-8.07097 18.84224,-19.10304 29.30905,-24.51565 10.46681,-5.4126 27.37388,-9.84109 37.57134,-9.84109 10.19738,0 28.86714,5.49479 41.4883,12.21073 12.62116,6.71594 29.56689,23.7567 37.65695,37.86835 8.09066,14.11173 14.69358,36.03026 14.67382,48.70793 0,12.67766 -5.66576,35.44965 -12.54661,50.60437 -7.71967,17.00368 -22.85641,34.40119 -39.53186,45.43642 -16.63053,11.0056 -39.3277,19.06484 -59.02142,20.95714 -17.59963,1.6911 -42.97162,-0.54662 -56.38222,-4.97234 -13.41067,-4.42592 -34.99576,-17.36511 -47.96689,-28.75381 -12.97113,-11.38869 -29.22851,-33.46706 -36.12746,-49.06309 -7.13611,-16.13225 -12.54352,-43.24896 -12.54352,-62.90263 0,-19.00037 4.98802,-47.01254 11.08456,-62.24925 6.19257,-15.47677 24.99674,-40.21139 42.60743,-56.0449 17.33759,-15.588 43.28208,-31.86494 57.65441,-36.17093 14.37232,-4.30606 40.81866,-7.8292 58.76971,-7.8292 17.95098,0 46.15678,4.60624 62.67963,10.23611 16.52266,5.62994 42.36008,20.78031 57.41587,33.6676 15.0558,12.88729 35.37827,38.65806 45.16147,57.26835 15.49705,29.48041 17.78825,41.46808 17.80011,93.10906 0,48.84293 -2.59283,64.16493 -14.79764,87.07877 -8.14598,15.29355 -24.0902,38.3748 -35.43161,51.29167 -11.3414,12.91679 -33.85365,31.2406 -50.02838,40.71947 -16.17459,9.47895 -45.52725,20.98138 -65.22814,25.561 -19.7009,4.5797 -46.81042,7.0583 -60.24328,5.5082 -13.43286,-1.5501 -33.31428,-4.6402 -44.18085,-6.86677 C 195.66693,996.4452 172.5972,987.47804 155.26733,978.74474 137.93751,970.01151 111.56988,950.37232 96.672606,935.10209 81.775393,919.83186 61.29408,889.8882 51.158599,868.56067 41.023117,847.23315 30.72793,813.75542 28.280317,794.16576 c -2.584795,-20.68798 -1.098972,-52.65131 3.544742,-76.25475 4.397207,-22.35036 15.062121,-54.58364 23.69986,-71.62941 8.637804,-17.04583 30.417771,-45.47489 48.400031,-63.17567 17.9822,-17.70086 48.42552,-39.8356 67.65178,-49.18843 19.22619,-9.35269 52.39261,-20.58242 73.70301,-24.9548 23.05867,-4.73104 53.56818,-6.09785 75.35474,-3.37581 20.13463,2.51571 59.00752,12.81572 86.38404,22.8889 27.37651,10.07324 64.59353,20.28202 82.70448,22.6861 18.11096,2.40415 49.12547,1.24294 68.92041,-2.58044 19.7956,-3.82346 48.43132,-12.97337 63.63464,-20.3332 15.20332,-7.35977 41.12964,-25.25327 57.6139,-39.7633 18.31577,-16.12204 38.26153,-43.2211 51.28758,-69.68192 18.786,-38.15853 21.30177,-49.65213 21.18916,-96.79389 -0.0988,-40.69886 -3.59322,-61.24445 -14.61455,-85.89813 -7.96816,-17.82243 -24.46428,-44.58061 -36.6592,-59.46261 -12.19493,-14.88199 -38.06988,-35.8633 -57.49997,-46.62522 -32.23157,-17.8522 -40.81089,-19.56543 -97.89266,-19.54883 -51.51216,0.0132 -67.27132,2.53474 -89.20467,14.26293 -14.65143,7.83467 -38.63955,27.26377 -53.30679,43.17578 -14.66724,15.91209 -31.92797,42.70556 -38.35755,59.54111 -8.2991,21.73084 -10.87902,42.63311 -8.8938,72.05755 1.53799,22.79609 7.95598,52.13893 14.26241,65.20621 6.30591,13.06735 20.95997,33.48557 32.56482,45.3738 11.60418,11.88822 34.43451,27.38705 50.73437,34.44182 21.66465,9.37687 40.30049,12.17135 69.2846,10.38976 22.74999,-1.39843 50.81933,-8.20907 65.85801,-15.97946 14.415,-7.44827 35.10034,-26.12903 45.96691,-41.51273 17.55577,-24.85409 19.7574,-33.28082 19.7574,-75.63272 0,-39.95375 -2.64486,-51.52177 -16.35122,-71.52555 -8.99357,-13.12484 -27.17894,-29.94847 -40.41179,-37.38588 -14.08637,-7.91712 -35.97296,-13.51228 -52.79969,-13.49793 -17.04734,0.0132 -37.47123,5.34866 -50.2029,13.11141 -11.8057,7.19775 -27.52667,22.74564 -34.93701,34.55089 -10.08945,16.07469 -12.71718,28.8516 -10.4655,50.8865 2.29318,22.44132 7.87267,33.77034 23.51526,47.74706 13.6392,12.18676 27.77825,18.3246 42.21301,18.3246 12.73957,0 27.65773,-5.5465 36.11785,-13.42819 8.48383,-7.90362 14.41368,-21.35571 14.41368,-32.69725 0,-11.7029 -4.52576,-21.59668 -11.52515,-25.19674 -6.33883,-3.26017 -15.22966,-4.59933 -19.7574,-2.9758 -4.52774,1.62347 -8.23225,8.94912 -8.23225,16.27918 0,9.44713 -3.03276,12.16351 -10.41742,9.3299 -5.72965,-2.19866 -11.65687,-3.99751 -13.1716,-3.99751 -1.51474,0 -2.75418,-8.43154 -2.75418,-18.73674 0,-10.30513 5.41945,-23.64137 12.04345,-29.6361 6.624,-5.99466 21.39529,-10.89937 32.82561,-10.89937 13.48508,0 28.07,6.51237 41.54059,18.54845 17.14087,15.31521 20.7591,23.44183 20.7591,46.62009 0,17.55136 -4.80829,34.51171 -12.82979,45.25611 -7.05669,9.45155 -20.35276,22.80103 -29.5472,29.66548 -10.66373,7.9617 -27.53918,12.48088 -46.60573,12.48088 -16.43882,0 -38.36954,-4.41078 -48.73427,-9.80178 -10.36473,-5.39094 -25.31582,-16.75145 -33.22471,-25.24555 -7.90888,-8.4941 -17.54062,-23.78666 -21.40385,-33.98345 -3.86323,-10.19686 -7.02441,-31.49008 -7.02441,-47.31832 0,-15.82825 3.15196,-37.12153 7.00465,-47.31832 3.8527,-10.19686 14.96624,-26.96102 24.69676,-37.25384 9.73052,-10.29275 29.26861,-24.66626 43.41755,-31.94113 16.88138,-8.67975 38.60267,-13.22699 63.18285,-13.22699 24.83242,0 46.4266,4.57562 64.06865,13.57578 14.63562,7.46671 35.63971,22.60516 46.67554,33.64099 11.03583,11.03583 26.19634,36.45214 33.69032,56.48075 7.49333,20.02854 13.62471,44.65733 13.62471,54.73057 0,10.07325 -4.41644,33.18598 -9.8135,51.36161 -5.39773,18.17562 -18.27692,44.72957 -28.62124,59.00877 -11.57783,15.98341 -35.01736,34.64559 -60.98319,48.55434 -36.53868,19.57202 -48.33978,22.59022 -88.27739,22.57698 -35.69504,-0.0132 -54.27622,-3.83464 -82.32251,-16.93696 -19.92205,-9.30692 -47.38155,-28.2413 -61.02206,-42.07629 -13.63959,-13.83499 -32.04552,-40.17318 -40.90171,-58.52933 -8.85625,-18.35614 -18.05181,-48.70232 -20.43462,-67.43596 -2.53599,-19.93831 -0.97219,-48.61059 3.77162,-69.15091 4.45714,-19.29936 15.01108,-47.18212 23.45316,-61.96178 8.44214,-14.77959 26.63265,-38.08871 40.42338,-51.79791 13.79067,-13.70927 44.33759,-34.16259 67.88183,-45.451837 37.45345,-17.958557 49.80973,-20.540915 98.78701,-20.645827 49.0787,-0.105373 61.25585,2.388868 98.78701,20.232502 23.54424,11.193819 52.88398,28.872282 65.20009,39.285352 12.31544,10.41307 32.09194,34.09693 43.9477,52.63075 11.85642,18.53383 26.58227,50.98497 32.72419,72.1136 7.81603,26.88613 10.29756,53.44726 8.26847,88.49933 -2.04423,35.3211 -7.9787,61.17873 -20.13213,87.7257 -9.47829,20.70325 -25.07939,47.92869 -34.66832,60.50098 -9.58958,12.5723 -37.18672,38.85887 -61.32697,58.41455 -28.9986,23.49116 -52.10949,49.52042 -68.10904,76.71055 -15.99427,27.18033 -26.69488,56.01619 -31.51239,84.92232 -5.19093,31.14333 -5.29696,54.17072 -0.36881,79.8344 3.81055,19.83669 13.08796,47.99099 20.61619,62.5651 7.52823,14.57412 20.90267,36.04883 29.72106,47.7217 8.81839,11.67281 28.71409,29.94788 44.21312,40.61114 15.49836,10.66334 45.44729,24.40797 66.55346,30.54363 23.86299,6.93722 52.35646,10.12567 75.34947,8.4318 20.83352,-1.53475 52.78848,-10.14536 73.19722,-19.72362 19.92205,-9.34986 46.64327,-27.38013 59.38021,-40.06735 12.73694,-12.68721 30.39413,-37.47933 39.2382,-55.09358 10.07564,-20.0672 17.07046,-47.17146 18.73206,-72.58606 1.734,-26.52517 -1.0953,-51.84191 -8.17762,-73.16364 -5.95557,-17.93188 -21.43418,-44.9934 -34.39635,-60.13666 -12.96218,-15.14325 -38.39588,-35.04745 -56.52,-44.23148 -24.37998,-12.35424 -43.49065,-16.75915 -73.46066,-16.93203 -23.35983,-0.13501 -51.61292,4.39879 -66.74182,10.70963 -14.42883,6.01883 -36.22849,20.42481 -48.44251,32.01338 -12.21469,11.58851 -27.70844,32.92452 -34.43123,47.41329 -6.72213,14.48876 -12.28779,41.3203 -12.36747,59.6256 -0.0988,22.53101 5.13824,43.80538 16.20765,65.858 9.05548,18.03963 26.53419,39.4612 39.17037,48.00647 12.5499,8.48699 34.3568,18.3597 48.45964,21.93941 17.95882,4.55843 34.26987,4.18521 54.43888,-1.2457 17.37466,-4.67849 38.47096,-17.4284 53.18627,-32.14352 15.18752,-15.18738 26.09887,-33.50295 28.92089,-48.54486 2.75681,-14.69476 1.03594,-35.1255 -4.39339,-52.16395 -5.98913,-18.79574 -16.28471,-32.94705 -31.30231,-43.02339 -13.83743,-9.28499 -32.25264,-15.01516 -48.2535,-15.01516 -19.81865,0 -30.38228,4.5064 -45.12657,19.25075 -12.93517,12.93524 -19.25095,25.89886 -19.25095,39.51487 0,11.48294 5.70791,25.9717 13.1716,33.43559 7.24438,7.24438 17.40561,13.1716 22.58007,13.1716 5.17447,0 14.20558,-4.79763 20.06957,-10.66143 9.8247,-9.82476 9.7707,-11.646 -0.69151,-23.20592 -8.551,-9.44904 -9.48487,-14.4121 -3.78354,-20.11317 5.6763,-5.67604 11.68519,-5.69316 24.03027,-0.0685 9.0535,4.12515 18.40073,15.22868 20.77162,24.67443 2.37088,9.44581 1.09917,24.22204 -2.82531,32.83621 -3.92514,8.61416 -16.51587,20.51233 -27.97912,26.4404 -13.39091,6.92478 -28.38612,9.3633 -41.93969,6.82059 -11.60353,-2.17681 -29.5169,-12.74609 -39.80722,-23.48747 -14.49337,-15.12752 -19.3392,-27.35603 -21.49803,-54.2508 -2.28461,-28.46277 -0.006,-38.81183 12.64013,-57.41547 8.48515,-12.4818 25.55752,-28.61069 37.93948,-35.8419 13.75906,-8.03593 34.23497,-13.09738 52.66401,-13.01822 17.90943,0.0771 41.51294,5.9919 58.13418,14.56819 15.60177,8.05035 35.77342,26.21195 45.59153,41.04817 11.87683,17.94756 18.58118,38.32706 20.59445,62.60548 2.00736,24.20743 -0.6454,45.50861 -8.10843,65.04288 -6.10109,15.97584 -22.31928,39.18908 -36.03948,51.585 -13.72086,12.39586 -38.75744,27.81223 -55.63684,34.25855 -22.18954,8.47434 -41.30351,10.75816 -69.01063,8.24575 -26.31686,-2.3863 -47.78789,-9.3764 -68.54172,-22.31467 -16.62191,-10.36197 -39.20396,-30.15579 -50.18315,-43.9863 -10.97919,-13.83051 -23.70295,-36.05759 -28.27547,-49.39351 -4.57253,-13.33578 -8.31524,-42.02867 -8.31721,-63.76181 -0.002,-26.90451 4.74112,-50.02337 14.86217,-72.44381 8.17628,-18.11095 25.83281,-44.29859 39.23689,-58.19476 13.40474,-13.89618 39.19012,-33.11809 57.30107,-42.71531 28.10096,-14.89096 41.13689,-17.46311 88.90831,-17.54194 48.97531,-0.081 60.75336,2.3265 94.13612,19.24134 20.98631,10.63357 50.14692,32.34162 64.80165,48.24007 14.65471,15.89838 34.36471,45.72515 43.79951,66.2816 13.9916,30.48218 17.162,47.2414 17.1923,90.86917 0.066,46.83288 -2.5692,58.78611 -20.8876,95.99628 -11.508,23.37636 -35.06871,56.47324 -52.3571,73.5487 -17.28838,17.07547 -47.73322,38.89871 -67.65527,48.49613 -29.70657,14.31096 -47.47638,17.84086 -98.78701,19.62386 -49.38626,1.716 -69.73836,-0.4867 -96.6216,-10.4562 z m -154.304,-376.39947 c 7.61055,-14.60026 13.83677,-29.05432 13.83677,-32.12001 0,-3.06569 -14.07715,-4.06192 -31.28255,-2.21381 -17.20541,1.8481 -32.11368,4.04394 -33.12922,4.87961 -1.01618,0.83568 6.1788,13.77763 15.98769,28.75987 9.8089,14.98217 18.49096,27.24038 19.29311,27.24038 0.80149,0 7.68431,-11.94572 15.2942,-26.54604 z"
       id="path2"
       sodipodi:nodetypes="sssssssssssssssssssssssssssssssssssssssssssssssssssscssscssssssssssssssssssssssssssssssssscsssssssssssssssssssssssssssssssssssssssssssssssssssssssssssssssssssssssssssssssssssssssssscsssssssssssssssssssssssssssssssssssssssssssscssssssssssss"
       inkscape:label="path2" />
  </g>
</svg>
